<svg width="362" height="362" viewBox="0 0 362 362" fill="none" xmlns="http://www.w3.org/2000/svg">
<rect width="362" height="362" rx="181" fill="white"/>
<circle cx="181" cy="181" r="181" fill="white"/>
<path d="M107.091 249.471L102.091 249.471L107.091 249.471ZM161.965 203.8H166.965V193.8H161.965V203.8ZM178.712 82V77C175.95 77 173.712 79.2386 173.712 82H178.712ZM195.029 82L195.029 77H195.029V82ZM107 82V77C104.239 77 102 79.2386 102 82H107ZM173.712 182.053V187.053H183.712V182.053H173.712ZM220.794 301V306C223.555 306 225.794 303.761 225.794 301H220.794ZM225.794 215.977V210.977H215.794V215.977H225.794ZM220.794 121.935V116.935C218.033 116.935 215.794 119.174 215.794 121.935H220.794ZM220.794 162.729H215.794C215.794 165.491 218.033 167.729 220.794 167.729V162.729ZM249.135 82L249.135 77L249.135 77L249.135 82ZM274.9 101.968L269.9 101.959C269.9 102.033 269.901 102.108 269.904 102.183L274.9 101.968ZM155.247 181.624V186.624H165.247V181.624H155.247ZM271.035 162.729H276.035V157.729H271.035V162.729ZM274.916 82L279.914 81.8672C279.842 79.1585 277.625 77 274.916 77L274.916 82ZM183.712 206.959V201.959H173.712V206.959H183.712ZM160.63 269.224L165.628 269.347C165.63 269.294 165.63 269.241 165.63 269.188L160.63 269.224ZM165.247 215.941L165.211 210.941L155.211 211.013L155.247 216.012L165.247 215.941ZM169.479 285.112L169.712 280.117L169.712 280.117L169.479 285.112ZM161.965 296C150.748 296 138.197 293.532 128.587 286.633C119.251 279.929 112.093 268.626 112.091 249.47L102.091 249.471C102.093 271.538 110.561 286 122.755 294.756C134.676 303.315 149.561 306 161.965 306V296ZM112.091 249.47C112.09 242.366 113.315 230.913 119.954 221.351C126.364 212.122 138.418 203.8 161.965 203.8V193.8C135.7 193.8 120.316 203.299 111.741 215.647C103.396 227.664 102.09 241.546 102.091 249.471L112.091 249.47ZM178.712 87H195.029V77H178.712V87ZM167.547 193.8C155.532 193.8 141.678 190.993 130.917 182.288C120.357 173.745 112 158.889 112 133.1H102C102 161.245 111.249 179.239 124.628 190.063C137.807 200.724 154.227 203.8 167.547 203.8V193.8ZM112 133.1V82H102V133.1H112ZM173.712 82V182.053H183.712V82H173.712ZM215.794 215.977V301H225.794V215.977H215.794ZM215.794 121.935V162.729H225.794V121.935H215.794ZM195.029 82C195.029 87 195.029 87 195.029 87C195.03 87 195.03 87 195.03 87C195.031 87 195.032 87 195.034 87C195.037 87 195.042 87 195.049 87C195.061 87 195.081 87 195.106 87C195.158 87 195.234 87 195.335 87C195.537 87 195.836 87 196.227 87C197.009 87 198.156 87 199.619 87C202.544 87.0001 206.731 87.0001 211.776 87.0001C221.868 87.0001 235.394 87.0001 249.135 87L249.135 77C235.394 77.0001 221.868 77.0001 211.776 77.0001C206.731 77.0001 202.544 77.0001 199.619 77C198.156 77 197.009 77 196.227 77C195.836 77 195.537 77 195.335 77C195.234 77 195.158 77 195.106 77C195.081 77 195.062 77 195.049 77C195.042 77 195.037 77 195.034 77C195.032 77 195.031 77 195.03 77C195.03 77 195.03 77 195.03 77C195.029 77 195.029 77 195.029 82ZM266.035 180.765C266.035 181.169 266.026 184.489 264.067 187.601C262.354 190.321 258.584 193.8 249.135 193.8V203.8C261.586 203.8 268.766 198.906 272.529 192.93C276.044 187.347 276.035 181.649 276.035 180.765H266.035ZM249.135 116.935H220.794V126.935H249.135V116.935ZM274.9 101.968C269.904 102.183 269.904 102.179 269.904 102.176C269.904 102.175 269.904 102.172 269.904 102.17C269.904 102.167 269.904 102.163 269.904 102.16C269.903 102.154 269.903 102.148 269.903 102.144C269.903 102.136 269.903 102.132 269.903 102.132C269.903 102.133 269.903 102.151 269.903 102.185C269.903 102.252 269.901 102.382 269.892 102.565C269.872 102.933 269.822 103.503 269.696 104.206C269.442 105.627 268.896 107.482 267.759 109.306C265.692 112.619 260.99 116.935 249.135 116.935V126.935C263.904 126.935 272.084 121.268 276.244 114.597C278.22 111.429 279.123 108.293 279.54 105.97C279.749 104.801 279.84 103.811 279.878 103.086C279.897 102.723 279.903 102.424 279.903 102.199C279.903 102.086 279.902 101.992 279.9 101.917C279.9 101.88 279.899 101.848 279.898 101.82C279.897 101.806 279.897 101.794 279.896 101.783C279.896 101.777 279.896 101.772 279.896 101.767C279.896 101.764 279.896 101.761 279.896 101.76C279.895 101.756 279.895 101.753 274.9 101.968ZM107 87H145.647V77H107V87ZM145.647 87C148.422 87 150.171 87.6794 151.314 88.4415C152.489 89.2245 153.334 90.3042 153.95 91.5361C154.576 92.7875 154.913 94.0995 155.087 95.1408C155.172 95.6496 155.212 96.0626 155.231 96.3289C155.241 96.4612 155.245 96.5547 155.246 96.6026C155.247 96.6265 155.247 96.6389 155.247 96.6388C155.247 96.6387 155.247 96.6355 155.247 96.6291C155.247 96.6259 155.247 96.6219 155.247 96.6171C155.247 96.6146 155.247 96.612 155.247 96.6092C155.247 96.6078 155.247 96.6055 155.247 96.6048C155.247 96.6024 155.247 96.6 160.247 96.6C165.247 96.6 165.247 96.5975 165.247 96.595C165.247 96.594 165.247 96.5914 165.247 96.5896C165.247 96.5858 165.247 96.5819 165.247 96.5777C165.247 96.5693 165.247 96.56 165.247 96.5498C165.247 96.5293 165.246 96.5052 165.246 96.4775C165.245 96.4222 165.243 96.3525 165.241 96.2695C165.235 96.1036 165.225 95.8834 165.206 95.6165C165.168 95.0843 165.094 94.3567 164.951 93.4968C164.668 91.8006 164.093 89.4625 162.894 87.064C161.685 84.6458 159.793 82.0756 156.861 80.121C153.898 78.1456 150.172 77 145.647 77V87ZM155.247 96.6V181.624H165.247V96.6H155.247ZM266.035 162.729V180.765H276.035V162.729H266.035ZM249.135 87L274.916 87L274.916 77L249.135 77L249.135 87ZM269.918 82.1329C269.917 82.1056 269.918 82.1531 269.919 82.3569C269.919 82.5285 269.92 82.7651 269.92 83.0596C269.921 83.6477 269.921 84.4535 269.921 85.4046C269.92 87.306 269.918 89.7789 269.915 92.232C269.911 94.6848 269.908 97.1166 269.905 98.9352C269.903 99.8445 269.902 100.6 269.901 101.129C269.901 101.393 269.901 101.601 269.9 101.742C269.9 101.813 269.9 101.867 269.9 101.904C269.9 101.922 269.9 101.936 269.9 101.945C269.9 101.95 269.9 101.953 269.9 101.955C269.9 101.957 269.9 101.957 269.9 101.958C269.9 101.958 269.9 101.959 269.9 101.959C269.9 101.959 269.9 101.959 274.9 101.968C279.9 101.976 279.9 101.976 279.9 101.976C279.9 101.976 279.9 101.976 279.9 101.976C279.9 101.975 279.9 101.974 279.9 101.973C279.9 101.971 279.9 101.967 279.9 101.962C279.9 101.953 279.9 101.939 279.9 101.921C279.9 101.885 279.9 101.83 279.9 101.76C279.9 101.618 279.901 101.41 279.901 101.146C279.902 100.617 279.903 99.8608 279.905 98.9512C279.908 97.1319 279.911 94.699 279.915 92.2447C279.921 87.4182 279.926 82.2991 279.914 81.8672L269.918 82.1329ZM173.712 206.959V269.224H183.712V206.959H173.712ZM165.63 269.188L165.247 215.941L155.247 216.012L155.63 269.259L165.63 269.188ZM169.712 280.117C168.665 280.068 167.391 279.3 166.42 275.703C166 274.149 165.795 272.54 165.701 271.275C165.654 270.654 165.637 270.143 165.631 269.799C165.628 269.628 165.627 269.5 165.628 269.422C165.628 269.383 165.628 269.356 165.629 269.344C165.629 269.337 165.629 269.334 165.629 269.335C165.629 269.335 165.629 269.336 165.629 269.338C165.629 269.339 165.629 269.341 165.629 269.342C165.628 269.343 165.628 269.344 165.628 269.345C165.628 269.346 165.628 269.347 160.63 269.224C155.631 269.1 155.631 269.101 155.631 269.103C155.631 269.103 155.631 269.105 155.631 269.106C155.631 269.109 155.631 269.111 155.631 269.114C155.631 269.12 155.631 269.127 155.631 269.135C155.63 269.15 155.63 269.169 155.63 269.192C155.629 269.238 155.628 269.299 155.628 269.373C155.627 269.522 155.628 269.726 155.632 269.978C155.641 270.481 155.666 271.182 155.728 272.017C155.851 273.663 156.127 275.945 156.765 278.31C157.911 282.55 161.061 289.726 169.247 290.106L169.712 280.117ZM178.712 269.224C173.712 269.224 173.712 269.222 173.712 269.221C173.712 269.221 173.712 269.219 173.712 269.219C173.712 269.217 173.712 269.216 173.712 269.215C173.712 269.214 173.712 269.213 173.712 269.213C173.712 269.213 173.712 269.217 173.711 269.225C173.711 269.24 173.711 269.269 173.71 269.312C173.709 269.398 173.705 269.537 173.698 269.722C173.683 270.091 173.652 270.636 173.59 271.295C173.462 272.638 173.214 274.335 172.751 275.951C172.269 277.631 171.667 278.824 171.07 279.5C170.625 280.003 170.295 280.144 169.712 280.117L169.247 290.106C173.279 290.294 176.412 288.557 178.564 286.121C180.563 283.858 181.692 281.052 182.364 278.706C183.055 276.296 183.384 273.941 183.545 272.238C183.627 271.374 183.668 270.647 183.689 270.126C183.7 269.865 183.705 269.654 183.708 269.501C183.71 269.425 183.711 269.363 183.711 269.316C183.711 269.293 183.711 269.273 183.711 269.258C183.711 269.25 183.711 269.243 183.711 269.238C183.711 269.235 183.712 269.232 183.712 269.23C183.712 269.229 183.712 269.227 183.712 269.226C183.712 269.225 183.712 269.224 178.712 269.224ZM234.106 238.153L270.177 238.153L270.177 228.153L234.106 228.153L234.106 238.153ZM234.106 257.906H260.729V247.906H234.106V257.906ZM234.106 277.659H253V267.659H234.106V277.659ZM220.794 296H161.965V306H220.794V296ZM249.135 193.8H167.547V203.8H249.135V193.8ZM220.794 167.729H271.035V157.729H220.794V167.729Z" fill="url(#paint0_linear)"/>
<defs>
<linearGradient id="paint0_linear" x1="190.961" y1="82" x2="190.961" y2="301" gradientUnits="userSpaceOnUse">
<stop stop-color="#FF0E0E"/>
<stop offset="1" stop-color="#4200FF"/>
</linearGradient>
</defs>
</svg>
