<svg width="362" height="362" viewBox="0 0 362 362" fill="none" xmlns="http://www.w3.org/2000/svg">
<g clip-path="url(#clip0)">
<circle cx="181" cy="181" r="181" fill="#0E0E0E"/>
<g filter="url(#filter0_f)">
<circle cx="181" cy="181" r="181" fill="#02023D"/>
</g>
<g filter="url(#filter1_f)">
<ellipse cx="175.5" cy="180.5" rx="92.5" ry="87.5" fill="#002D46"/>
</g>
<path d="M86.1054 261L91.1054 260.999L86.1054 261ZM150 207H155V197H150V207ZM169.5 66V61C166.738 61 164.5 63.2386 164.5 66H169.5ZM188.5 66L188.5 61H188.5V66ZM86 66V61C83.2386 61 81 63.2386 81 66H86ZM164.5 182.5V187.5H174.5V182.5H164.5ZM218.5 321V326C221.261 326 223.5 323.761 223.5 321H218.5ZM223.5 222V217H213.5V222H223.5ZM218.5 112.5V107.5C215.738 107.5 213.5 109.739 213.5 112.5H218.5ZM218.5 160H213.5C213.5 162.761 215.738 165 218.5 165V160ZM251.5 66L251.5 71L251.5 66ZM281.5 89.25L276.5 89.2412C276.5 89.3158 276.501 89.3904 276.504 89.4649L281.5 89.25ZM143 182V187H153V182H143ZM277 160H282V155H277V160ZM281.518 66.0001L286.517 65.8672C286.445 63.1585 284.228 61.0002 281.519 61.0001L281.518 66.0001ZM174.5 211.5V206.5H164.5V211.5H174.5ZM148.446 284L153.444 284.124C153.446 284.071 153.446 284.017 153.446 283.964L148.446 284ZM153 221.964L152.964 216.964L142.964 217.036L143 222.036L153 221.964ZM150 316C136.841 316 122.036 313.109 110.657 304.938C99.5505 296.964 91.1078 283.544 91.1054 260.999L81.1054 261.001C81.1081 286.456 90.8606 303.036 104.824 313.062C118.515 322.891 135.654 326 150 326V316ZM91.1054 260.999C91.1045 252.66 92.5374 239.124 100.409 227.789C108.05 216.787 122.359 207 150 207V197C119.641 197 102.002 207.963 92.1951 222.086C82.6188 235.876 81.1044 251.84 81.1054 261.001L91.1054 260.999ZM169.5 71H188.5V61H169.5V71ZM156.5 197C142.403 197 126.061 193.71 113.332 183.413C100.804 173.278 91 155.722 91 125.5H81C81 158.078 91.6962 178.772 107.043 191.187C122.189 203.44 141.097 207 156.5 207V197ZM91 125.5V66H81V125.5H91ZM164.5 66V182.5H174.5V66H164.5ZM213.5 222V321H223.5V222H213.5ZM213.5 112.5V160H223.5V112.5H213.5ZM188.5 66C188.5 71 188.5 71 188.5 71C188.5 71 188.501 71 188.501 71C188.502 71 188.504 71 188.505 71C188.509 71 188.515 71 188.522 71C188.537 71 188.56 71 188.59 71C188.649 71 188.738 71 188.856 71C189.091 71 189.439 71 189.894 71C190.804 71.0001 192.14 71.0001 193.844 71.0001C197.25 71.0001 202.125 71.0001 208 71.0001C219.75 71.0001 235.5 71.0001 251.5 71L251.5 61C235.5 61.0001 219.75 61.0001 208 61.0001C202.125 61.0001 197.25 61.0001 193.844 61.0001C192.14 61.0001 190.804 61.0001 189.894 61C189.439 61 189.091 61 188.856 61C188.738 61 188.649 61 188.59 61C188.56 61 188.537 61 188.522 61C188.515 61 188.509 61 188.505 61C188.504 61 188.502 61 188.501 61C188.501 61 188.5 61 188.5 61C188.5 61 188.5 61 188.5 66ZM272 181C272 181.51 271.991 185.571 269.581 189.398C267.419 192.832 262.749 197 251.5 197V207C265.751 207 273.831 201.418 278.044 194.727C282.009 188.429 282 181.99 282 181H272ZM251.5 107.5H218.5V117.5H251.5V107.5ZM281.5 89.25C276.504 89.4649 276.504 89.4618 276.504 89.4587C276.504 89.4578 276.504 89.4548 276.504 89.453C276.504 89.4493 276.504 89.446 276.504 89.443C276.503 89.437 276.503 89.4323 276.503 89.429C276.503 89.4223 276.503 89.4208 276.503 89.4243C276.503 89.4313 276.504 89.4584 276.504 89.504C276.503 89.5955 276.501 89.7605 276.489 89.9883C276.465 90.4459 276.404 91.1441 276.25 92.0009C275.94 93.7296 275.276 95.995 273.882 98.2292C271.304 102.363 265.543 107.5 251.5 107.5V117.5C268.457 117.5 277.696 111.012 282.367 103.521C284.599 99.9426 285.622 96.3955 286.093 93.7648C286.33 92.4419 286.433 91.3238 286.475 90.5098C286.497 90.1019 286.503 89.7673 286.504 89.5183C286.504 89.3937 286.502 89.2901 286.501 89.2092C286.5 89.1687 286.499 89.1339 286.498 89.1048C286.497 89.0903 286.497 89.0772 286.496 89.0656C286.496 89.0598 286.496 89.0543 286.496 89.0493C286.496 89.0467 286.496 89.0432 286.496 89.0419C286.495 89.0385 286.495 89.0352 281.5 89.25ZM86 71H131V61H86V71ZM131 71C134.375 71 136.574 71.8294 138.055 72.8165C139.567 73.8245 140.637 75.2043 141.403 76.7361C142.179 78.2875 142.591 79.8995 142.802 81.1658C142.906 81.7871 142.956 82.2939 142.98 82.6258C142.991 82.7909 142.996 82.9102 142.999 82.9757C143 83.0084 143 83.0275 143 83.0319C143 83.0341 143 83.0327 143 83.0274C143 83.0248 143 83.0212 143 83.0166C143 83.0144 143 83.0118 143 83.0091C143 83.0077 143 83.0054 143 83.0047C143 83.0024 143 83 148 83C153 83 153 82.9975 153 82.995C153 82.994 153 82.9914 153 82.9895C153 82.9857 153 82.9816 153 82.9773C153 82.9686 153 82.9588 153 82.948C153 82.9264 152.999 82.9006 152.999 82.8706C152.998 82.8108 152.996 82.7344 152.993 82.6426C152.987 82.4591 152.975 82.2131 152.954 81.9133C152.911 81.3156 152.828 80.4943 152.666 79.5218C152.346 77.6006 151.696 74.9625 150.347 72.264C148.988 69.5458 146.871 66.6756 143.602 64.496C140.301 62.2956 136.125 61 131 61V71ZM143 83V182H153V83H143ZM272 160V181H282V160H272ZM251.5 71C265.25 71 272.755 71 276.822 71C278.855 71 280.029 71 280.695 71C281.028 71 281.234 71 281.356 71C281.418 71.0001 281.458 71.0001 281.483 71.0001C281.496 71.0001 281.505 71.0001 281.51 71.0001C281.513 71.0001 281.515 71.0001 281.516 71.0001C281.517 71.0001 281.517 71.0001 281.518 71.0001C281.518 71.0001 281.518 71.0001 281.518 71.0001C281.518 71.0001 281.518 71.0001 281.518 71.0001C281.518 71.0001 281.518 71.0001 281.518 66.0001C281.519 61.0001 281.519 61.0001 281.519 61.0001C281.519 61.0001 281.519 61.0001 281.519 61.0001C281.518 61.0001 281.518 61.0001 281.518 61.0001C281.518 61.0001 281.517 61.0001 281.517 61.0001C281.515 61.0001 281.513 61.0001 281.511 61.0001C281.505 61.0001 281.496 61.0001 281.484 61.0001C281.458 61.0001 281.418 61.0001 281.357 61C281.234 61 281.028 61 280.695 61C280.029 61 278.855 61 276.822 61C272.755 61 265.25 61 251.5 61L251.5 71ZM276.52 66.133C276.52 66.1126 276.521 66.179 276.522 66.4122C276.523 66.6131 276.523 66.8895 276.524 67.2327C276.525 67.9182 276.525 68.857 276.524 69.9645C276.524 72.1789 276.521 75.0586 276.517 77.915C276.513 80.7712 276.509 83.6027 276.506 85.7204C276.504 86.7792 276.503 87.6594 276.502 88.275C276.501 88.5828 276.501 88.8243 276.5 88.989C276.5 89.0713 276.5 89.1344 276.5 89.1769C276.5 89.1981 276.5 89.2142 276.5 89.225C276.5 89.2304 276.5 89.2345 276.5 89.2372C276.5 89.2385 276.5 89.2395 276.5 89.2402C276.5 89.2406 276.5 89.2408 276.5 89.241C276.5 89.2412 276.5 89.2412 281.5 89.25C286.5 89.2589 286.5 89.2588 286.5 89.2586C286.5 89.2584 286.5 89.2582 286.5 89.2578C286.5 89.2571 286.5 89.2561 286.5 89.2547C286.5 89.252 286.5 89.2479 286.5 89.2425C286.5 89.2317 286.5 89.2156 286.5 89.1943C286.5 89.1518 286.5 89.0886 286.5 89.0063C286.501 88.8415 286.501 88.5998 286.501 88.2919C286.503 87.6761 286.504 86.7955 286.506 85.7363C286.509 83.6181 286.513 80.7853 286.517 77.9277C286.524 72.2947 286.53 66.3549 286.517 65.8672L276.52 66.133ZM164.5 211.5V284H174.5V211.5H164.5ZM153.446 283.964L153 221.964L143 222.036L143.446 284.036L153.446 283.964ZM158.982 297.505C157.177 297.421 155.539 296 154.394 291.759C153.887 289.883 153.642 287.954 153.53 286.449C153.475 285.709 153.454 285.099 153.447 284.685C153.443 284.479 153.443 284.323 153.443 284.227C153.444 284.178 153.444 284.145 153.444 284.127C153.444 284.119 153.444 284.114 153.445 284.113C153.445 284.113 153.444 284.114 153.444 284.115C153.444 284.116 153.444 284.117 153.444 284.119C153.444 284.119 153.444 284.121 153.444 284.121C153.444 284.122 153.444 284.124 148.446 284C143.447 283.876 143.447 283.878 143.447 283.879C143.447 283.88 143.447 283.882 143.447 283.883C143.447 283.885 143.447 283.888 143.447 283.891C143.447 283.897 143.447 283.905 143.447 283.913C143.446 283.93 143.446 283.951 143.445 283.976C143.445 284.027 143.444 284.094 143.443 284.178C143.443 284.345 143.443 284.577 143.448 284.864C143.459 285.436 143.487 286.237 143.558 287.191C143.698 289.077 144.014 291.679 144.74 294.366C146.059 299.25 149.573 307.078 158.518 307.495L158.982 297.505ZM169.5 284C164.5 284 164.5 283.999 164.5 283.997C164.5 283.997 164.5 283.996 164.5 283.995C164.5 283.994 164.5 283.993 164.5 283.992C164.5 283.991 164.5 283.991 164.5 283.991C164.5 283.993 164.5 283.999 164.5 284.009C164.499 284.029 164.499 284.066 164.498 284.119C164.496 284.224 164.492 284.392 164.483 284.613C164.465 285.056 164.428 285.705 164.354 286.489C164.203 288.083 163.907 290.113 163.35 292.06C162.773 294.071 162.028 295.593 161.218 296.51C160.56 297.254 159.945 297.55 158.982 297.505L158.518 307.495C162.929 307.7 166.346 305.808 168.712 303.131C170.925 300.626 172.195 297.492 172.962 294.815C173.748 292.074 174.124 289.386 174.309 287.432C174.403 286.443 174.451 285.612 174.475 285.018C174.487 284.72 174.493 284.48 174.496 284.308C174.498 284.221 174.499 284.152 174.499 284.1C174.499 284.074 174.5 284.053 174.5 284.036C174.5 284.028 174.5 284.021 174.5 284.015C174.5 284.012 174.5 284.009 174.5 284.006C174.5 284.005 174.5 284.004 174.5 284.003C174.5 284.001 174.5 284 169.5 284ZM234 247L276 247L276 237L234 237L234 247ZM234 270H265V260H234V270ZM234 293H256V283H234V293ZM218.5 316H150V326H218.5V316ZM251.5 197H156.5V207H251.5V197ZM218.5 165H277V155H218.5V165Z" fill="url(#paint0_linear)"/>
</g>
<defs>
<filter id="filter0_f" x="-42" y="-42" width="446" height="446" filterUnits="userSpaceOnUse" color-interpolation-filters="sRGB">
<feFlood flood-opacity="0" result="BackgroundImageFix"/>
<feBlend mode="normal" in="SourceGraphic" in2="BackgroundImageFix" result="shape"/>
<feGaussianBlur stdDeviation="21" result="effect1_foregroundBlur"/>
</filter>
<filter id="filter1_f" x="-15" y="-5" width="381" height="371" filterUnits="userSpaceOnUse" color-interpolation-filters="sRGB">
<feFlood flood-opacity="0" result="BackgroundImageFix"/>
<feBlend mode="normal" in="SourceGraphic" in2="BackgroundImageFix" result="shape"/>
<feGaussianBlur stdDeviation="49" result="effect1_foregroundBlur"/>
</filter>
<linearGradient id="paint0_linear" x1="183.762" y1="66" x2="183.762" y2="321" gradientUnits="userSpaceOnUse">
<stop stop-color="#41D1FF"/>
<stop offset="0.385417" stop-color="#6E3AFF"/>
<stop offset="0.651042" stop-color="#0094FF"/>
<stop offset="1" stop-color="#5226FF"/>
</linearGradient>
<clipPath id="clip0">
<rect width="362" height="362" rx="181" fill="white"/>
</clipPath>
</defs>
</svg>
