<svg width="81" height="100" viewBox="0 0 81 100" fill="none" xmlns="http://www.w3.org/2000/svg">
<path d="M8.39455 27.7982C9.74963 25.7037 12.5461 25.1042 14.6407 26.4593L35.4729 39.9369C44.7335 45.9281 47.3839 58.2923 41.3926 67.553V67.553L8.38396 46.1977C3.75362 43.2021 2.42843 37.02 5.42406 32.3897L8.39455 27.7982Z" fill="#33EB52"/>
<rect x="26.3812" y="54.265" width="52.3717" height="19.9711" rx="9.98557" transform="rotate(32.9012 26.3812 54.265)" fill="#8D64FF"/>
<rect x="18.9174" width="57.8003" height="19.9711" rx="9.98557" transform="rotate(32.9012 18.9174 0)" fill="#8D64FF"/>
<rect x="1.41211" y="87.9141" width="39.3971" height="19.9711" rx="9.98557" transform="rotate(-53.4075 1.41211 87.9141)" fill="#33EB52"/>
<path d="M23.2736 75.2251C18.7758 72.0339 17.7166 65.8007 20.9078 61.3029L33.9469 42.925C35.0182 41.415 37.1109 41.0594 38.621 42.1307V42.1307C46.1065 47.4417 47.8694 57.8154 42.5584 65.3009L33.3195 78.3227C32.2691 79.8031 30.2175 80.1517 28.7371 79.1014L23.2736 75.2251Z" fill="#33EB52"/>
<circle cx="66.8184" cy="59.8184" r="13.8184" fill="#33EB52"/>
</svg>
