<svg width="72" height="63" viewBox="0 0 72 63" fill="none" xmlns="http://www.w3.org/2000/svg">
<path d="M65.25 31.5H54V22.5C54 17.5359 58.0359 13.5 63 13.5H64.125C65.9953 13.5 67.5 11.9953 67.5 10.125V3.375C67.5 1.50469 65.9953 0 64.125 0H63C50.5687 0 40.5 10.0687 40.5 22.5V56.25C40.5 59.9766 43.5234 63 47.25 63H65.25C68.9766 63 72 59.9766 72 56.25V38.25C72 34.5234 68.9766 31.5 65.25 31.5ZM24.75 31.5H13.5V22.5C13.5 17.5359 17.5359 13.5 22.5 13.5H23.625C25.4953 13.5 27 11.9953 27 10.125V3.375C27 1.50469 25.4953 0 23.625 0H22.5C10.0687 0 0 10.0687 0 22.5V56.25C0 59.9766 3.02344 63 6.75 63H24.75C28.4766 63 31.5 59.9766 31.5 56.25V38.25C31.5 34.5234 28.4766 31.5 24.75 31.5Z" fill="white"/>
</svg>
