<svg width="85" height="100" viewBox="0 0 85 100" fill="none" xmlns="http://www.w3.org/2000/svg">
<path d="M5.42407 32.3897C8.4197 27.7593 14.6018 26.4341 19.2321 29.4298L43.7721 45.3061C48.4492 48.332 49.7878 54.5766 46.7619 59.2537L41.3926 67.553L8.38396 46.1977C3.75362 43.2021 2.42843 37.02 5.42407 32.3897V32.3897Z" fill="#33EB52"/>
<rect x="26.3812" y="54.265" width="52.3717" height="19.9711" rx="9.98557" transform="rotate(32.9012 26.3812 54.265)" fill="#8D64FF"/>
<rect x="18.9174" width="57.8003" height="19.9711" rx="9.98557" transform="rotate(32.9012 18.9174 0)" fill="#8D64FF"/>
<rect x="1.41211" y="87.9141" width="39.3971" height="19.9711" rx="9.98557" transform="rotate(-53.4075 1.41211 87.9141)" fill="#33EB52"/>
<path d="M23.2736 75.2251C18.7758 72.0339 17.7166 65.8007 20.9078 61.3029L30.1086 48.3348C33.2998 43.837 39.533 42.7778 44.0308 45.969V45.969C48.5286 49.1602 49.5878 55.3933 46.3966 59.8911L37.1958 72.8592C34.0046 77.357 27.7714 78.4163 23.2736 75.2251V75.2251Z" fill="#33EB52"/>
<circle cx="70.8184" cy="58.8184" r="13.8184" fill="#33EB52"/>
</svg>
