<svg width="32" height="32" viewBox="0 0 32 32" fill="none" xmlns="http://www.w3.org/2000/svg">
<path d="M16 0C12.8355 0 9.74207 0.938384 7.11088 2.69649C4.4797 4.45459 2.42894 6.95345 1.21793 9.87706C0.00693254 12.8007 -0.309921 16.0177 0.307443 19.1214C0.924806 22.2251 2.44866 25.0761 4.6863 27.3137C6.92394 29.5513 9.77486 31.0752 12.8786 31.6926C15.9823 32.3099 19.1993 31.9931 22.1229 30.7821C25.0466 29.5711 27.5454 27.5203 29.3035 24.8891C31.0616 22.2579 32 19.1645 32 16C32 13.8988 31.5861 11.8183 30.7821 9.87706C29.978 7.93585 28.7994 6.17203 27.3137 4.68629C25.828 3.20055 24.0641 2.022 22.1229 1.21793C20.1817 0.413852 18.1012 0 16 0V0ZM16 3.2C19.2876 3.19869 22.4476 4.47189 24.816 6.752C22.3712 8.18592 19.7806 9.35519 17.088 10.24C15.748 7.93092 14.2116 5.7415 12.496 3.696C13.6351 3.368 14.8146 3.20104 16 3.2V3.2ZM9.424 5.04C11.1003 6.95761 12.6048 9.01888 13.92 11.2C10.7794 11.9798 7.55601 12.3774 4.32001 12.384H3.74401C4.65153 9.31142 6.6783 6.69089 9.424 5.04V5.04ZM6.40001 24.496C4.31801 22.158 3.17773 19.1306 3.20001 16V15.536H4.28801C8.07581 15.5021 11.8422 14.9641 15.488 13.936C16 14.912 16.48 15.92 16.944 16.96C14.4504 17.8391 12.128 19.1437 10.08 20.816L9.6 21.2C8.45939 22.2244 7.39023 23.3256 6.40001 24.496V24.496ZM16 28.8C13.4497 28.8057 10.9571 28.0417 8.84801 26.608C9.62695 25.7145 10.4605 24.8703 11.344 24.08L11.856 23.648C13.7491 22.0558 15.9184 20.8248 18.256 20.016C19.2181 22.6176 19.9673 25.2931 20.496 28.016C19.0557 28.5419 17.5333 28.8074 16 28.8V28.8ZM23.408 26.416C22.8845 23.9945 22.2003 21.6106 21.36 19.28H21.904C21.9671 19.2644 22.033 19.2644 22.096 19.28H23.2C24.8838 19.2848 26.5549 19.5714 28.144 20.128C27.2709 22.6726 25.6126 24.8743 23.408 26.416V26.416ZM23.2 16H22.208C22.0008 15.9739 21.7912 15.9739 21.584 16C21.1491 16.0267 20.7163 16.0801 20.288 16.16H20.128C19.664 15.088 19.184 14.048 18.656 12.96C21.521 11.9761 24.2726 10.6888 26.864 9.12C28.1495 11.183 28.821 13.5694 28.8 16V16.816C26.9867 16.2563 25.0976 15.9811 23.2 16V16Z" fill="black"/>
</svg>
