<svg xmlns="http://www.w3.org/2000/svg" version="1.1" xmlns:xlink="http://www.w3.org/1999/xlink" xmlns:svgjs="http://svgjs.dev/svgjs" viewBox="0 0 800 800" opacity="1"><defs><linearGradient gradientTransform="rotate(270)" x1="50%" y1="0%" x2="50%" y2="100%" id="sssquiggly-grad"><stop stop-color="hsl(205, 69%, 60%)" stop-opacity="1" offset="0%"></stop><stop stop-color="hsl(205, 69%, 80%)" stop-opacity="1" offset="100%"></stop></linearGradient></defs><g stroke-width="2.5" stroke="url(#sssquiggly-grad)" fill="none" stroke-linecap="round" transform="matrix(1,0,0,1,-5,334.99024391174316)"><path d="M10,10C24.583333333333332,11.666666666666666,48.75,24.041666666666664,80,18C111.25,11.958333333333334,126.66666666666666,-18.791666666666668,160,-19C193.33333333333334,-19.208333333333332,206.66666666666666,15.541666666666666,240,17C273.3333333333333,18.458333333333332,286.6666666666667,-14.708333333333332,320,-12C353.3333333333333,-9.291666666666668,366.6666666666667,29.166666666666668,400,30C433.3333333333333,30.833333333333332,446.6666666666667,-7.375,480,-8C513.3333333333334,-8.625,526.6666666666666,25.333333333333332,560,27C593.3333333333334,28.666666666666668,606.6666666666666,-2.916666666666667,640,0C673.3333333333334,2.916666666666667,686.6666666666666,42.041666666666664,720,41C753.3333333333334,39.958333333333336,783.3333333333334,4.583333333333334,800,-5"></path><path d="M10,10C24.583333333333332,11.666666666666666,48.75,24.041666666666664,80,18C111.25,11.958333333333334,126.66666666666666,-18.791666666666668,160,-19C193.33333333333334,-19.208333333333332,206.66666666666666,15.541666666666666,240,17C273.3333333333333,18.458333333333332,286.6666666666667,-14.708333333333332,320,-12C353.3333333333333,-9.291666666666668,366.6666666666667,29.166666666666668,400,30C433.3333333333333,30.833333333333332,446.6666666666667,-7.375,480,-8C513.3333333333334,-8.625,526.6666666666666,25.333333333333332,560,27C593.3333333333334,28.666666666666668,606.6666666666666,-2.916666666666667,640,0C673.3333333333334,2.916666666666667,686.6666666666666,42.041666666666664,720,41C753.3333333333334,39.958333333333336,783.3333333333334,4.583333333333334,800,-5" transform="matrix(1,0,0,1,0,108)"></path><path d="M10,10C24.583333333333332,11.666666666666666,48.75,24.041666666666664,80,18C111.25,11.958333333333334,126.66666666666666,-18.791666666666668,160,-19C193.33333333333334,-19.208333333333332,206.66666666666666,15.541666666666666,240,17C273.3333333333333,18.458333333333332,286.6666666666667,-14.708333333333332,320,-12C353.3333333333333,-9.291666666666668,366.6666666666667,29.166666666666668,400,30C433.3333333333333,30.833333333333332,446.6666666666667,-7.375,480,-8C513.3333333333334,-8.625,526.6666666666666,25.333333333333332,560,27C593.3333333333334,28.666666666666668,606.6666666666666,-2.916666666666667,640,0C673.3333333333334,2.916666666666667,686.6666666666666,42.041666666666664,720,41C753.3333333333334,39.958333333333336,783.3333333333334,4.583333333333334,800,-5" transform="matrix(1,0,0,1,0,96)"></path><path d="M10,10C24.583333333333332,11.666666666666666,48.75,24.041666666666664,80,18C111.25,11.958333333333334,126.66666666666666,-18.791666666666668,160,-19C193.33333333333334,-19.208333333333332,206.66666666666666,15.541666666666666,240,17C273.3333333333333,18.458333333333332,286.6666666666667,-14.708333333333332,320,-12C353.3333333333333,-9.291666666666668,366.6666666666667,29.166666666666668,400,30C433.3333333333333,30.833333333333332,446.6666666666667,-7.375,480,-8C513.3333333333334,-8.625,526.6666666666666,25.333333333333332,560,27C593.3333333333334,28.666666666666668,606.6666666666666,-2.916666666666667,640,0C673.3333333333334,2.916666666666667,686.6666666666666,42.041666666666664,720,41C753.3333333333334,39.958333333333336,783.3333333333334,4.583333333333334,800,-5" transform="matrix(1,0,0,1,0,84)"></path><path d="M10,10C24.583333333333332,11.666666666666666,48.75,24.041666666666664,80,18C111.25,11.958333333333334,126.66666666666666,-18.791666666666668,160,-19C193.33333333333334,-19.208333333333332,206.66666666666666,15.541666666666666,240,17C273.3333333333333,18.458333333333332,286.6666666666667,-14.708333333333332,320,-12C353.3333333333333,-9.291666666666668,366.6666666666667,29.166666666666668,400,30C433.3333333333333,30.833333333333332,446.6666666666667,-7.375,480,-8C513.3333333333334,-8.625,526.6666666666666,25.333333333333332,560,27C593.3333333333334,28.666666666666668,606.6666666666666,-2.916666666666667,640,0C673.3333333333334,2.916666666666667,686.6666666666666,42.041666666666664,720,41C753.3333333333334,39.958333333333336,783.3333333333334,4.583333333333334,800,-5" transform="matrix(1,0,0,1,0,72)"></path><path d="M10,10C24.583333333333332,11.666666666666666,48.75,24.041666666666664,80,18C111.25,11.958333333333334,126.66666666666666,-18.791666666666668,160,-19C193.33333333333334,-19.208333333333332,206.66666666666666,15.541666666666666,240,17C273.3333333333333,18.458333333333332,286.6666666666667,-14.708333333333332,320,-12C353.3333333333333,-9.291666666666668,366.6666666666667,29.166666666666668,400,30C433.3333333333333,30.833333333333332,446.6666666666667,-7.375,480,-8C513.3333333333334,-8.625,526.6666666666666,25.333333333333332,560,27C593.3333333333334,28.666666666666668,606.6666666666666,-2.916666666666667,640,0C673.3333333333334,2.916666666666667,686.6666666666666,42.041666666666664,720,41C753.3333333333334,39.958333333333336,783.3333333333334,4.583333333333334,800,-5" transform="matrix(1,0,0,1,0,60)"></path><path d="M10,10C24.583333333333332,11.666666666666666,48.75,24.041666666666664,80,18C111.25,11.958333333333334,126.66666666666666,-18.791666666666668,160,-19C193.33333333333334,-19.208333333333332,206.66666666666666,15.541666666666666,240,17C273.3333333333333,18.458333333333332,286.6666666666667,-14.708333333333332,320,-12C353.3333333333333,-9.291666666666668,366.6666666666667,29.166666666666668,400,30C433.3333333333333,30.833333333333332,446.6666666666667,-7.375,480,-8C513.3333333333334,-8.625,526.6666666666666,25.333333333333332,560,27C593.3333333333334,28.666666666666668,606.6666666666666,-2.916666666666667,640,0C673.3333333333334,2.916666666666667,686.6666666666666,42.041666666666664,720,41C753.3333333333334,39.958333333333336,783.3333333333334,4.583333333333334,800,-5" transform="matrix(1,0,0,1,0,48)"></path><path d="M10,10C24.583333333333332,11.666666666666666,48.75,24.041666666666664,80,18C111.25,11.958333333333334,126.66666666666666,-18.791666666666668,160,-19C193.33333333333334,-19.208333333333332,206.66666666666666,15.541666666666666,240,17C273.3333333333333,18.458333333333332,286.6666666666667,-14.708333333333332,320,-12C353.3333333333333,-9.291666666666668,366.6666666666667,29.166666666666668,400,30C433.3333333333333,30.833333333333332,446.6666666666667,-7.375,480,-8C513.3333333333334,-8.625,526.6666666666666,25.333333333333332,560,27C593.3333333333334,28.666666666666668,606.6666666666666,-2.916666666666667,640,0C673.3333333333334,2.916666666666667,686.6666666666666,42.041666666666664,720,41C753.3333333333334,39.958333333333336,783.3333333333334,4.583333333333334,800,-5" transform="matrix(1,0,0,1,0,36)"></path><path d="M10,10C24.583333333333332,11.666666666666666,48.75,24.041666666666664,80,18C111.25,11.958333333333334,126.66666666666666,-18.791666666666668,160,-19C193.33333333333334,-19.208333333333332,206.66666666666666,15.541666666666666,240,17C273.3333333333333,18.458333333333332,286.6666666666667,-14.708333333333332,320,-12C353.3333333333333,-9.291666666666668,366.6666666666667,29.166666666666668,400,30C433.3333333333333,30.833333333333332,446.6666666666667,-7.375,480,-8C513.3333333333334,-8.625,526.6666666666666,25.333333333333332,560,27C593.3333333333334,28.666666666666668,606.6666666666666,-2.916666666666667,640,0C673.3333333333334,2.916666666666667,686.6666666666666,42.041666666666664,720,41C753.3333333333334,39.958333333333336,783.3333333333334,4.583333333333334,800,-5" transform="matrix(1,0,0,1,0,24)"></path><path d="M10,10C24.583333333333332,11.666666666666666,48.75,24.041666666666664,80,18C111.25,11.958333333333334,126.66666666666666,-18.791666666666668,160,-19C193.33333333333334,-19.208333333333332,206.66666666666666,15.541666666666666,240,17C273.3333333333333,18.458333333333332,286.6666666666667,-14.708333333333332,320,-12C353.3333333333333,-9.291666666666668,366.6666666666667,29.166666666666668,400,30C433.3333333333333,30.833333333333332,446.6666666666667,-7.375,480,-8C513.3333333333334,-8.625,526.6666666666666,25.333333333333332,560,27C593.3333333333334,28.666666666666668,606.6666666666666,-2.916666666666667,640,0C673.3333333333334,2.916666666666667,686.6666666666666,42.041666666666664,720,41C753.3333333333334,39.958333333333336,783.3333333333334,4.583333333333334,800,-5" transform="matrix(1,0,0,1,0,12)"></path></g></svg>