<svg xmlns="http://www.w3.org/2000/svg" version="1.1" xmlns:xlink="http://www.w3.org/1999/xlink" xmlns:svgjs="http://svgjs.dev/svgjs" viewBox="0 0 800 800" opacity="1"><defs><linearGradient gradientTransform="rotate(270)" x1="50%" y1="0%" x2="50%" y2="100%" id="sssquiggly-grad"><stop stop-color="hsl(162, 100%, 58%)" stop-opacity="1" offset="0%"></stop><stop stop-color="hsl(270, 73%, 53%)" stop-opacity="1" offset="100%"></stop></linearGradient></defs><g stroke-width="1" stroke="url(#sssquiggly-grad)" fill="none" stroke-linecap="round" transform="matrix(1,0,0,1,-5,259.03336906433105)"><path d="M10,10C26.435185185185183,12.5,53.93518518518518,27,88.88888888888889,22C123.84259259259258,17,140.74074074074073,-15.25,177.77777777777777,-14C214.8148148148148,-12.75,229.6296296296296,29.875,266.66666666666663,28C303.7037037037037,26.125,318.5185185185185,-24.25,355.55555555555554,-23C392.5925925925926,-21.75,407.40740740740745,34.208333333333336,444.44444444444446,34C481.48148148148147,33.791666666666664,496.29629629629625,-21.916666666666668,533.3333333333333,-24C570.3703703703703,-26.083333333333332,585.1851851851851,21.291666666666668,622.2222222222222,24C659.2592592592592,26.708333333333332,674.074074074074,-16.416666666666664,711.1111111111111,-11C748.1481481481482,-5.583333333333334,781.4814814814815,37.29166666666667,800,50"></path><path d="M10,10C26.435185185185183,12.5,53.93518518518518,27,88.88888888888889,22C123.84259259259258,17,140.74074074074073,-15.25,177.77777777777777,-14C214.8148148148148,-12.75,229.6296296296296,29.875,266.66666666666663,28C303.7037037037037,26.125,318.5185185185185,-24.25,355.55555555555554,-23C392.5925925925926,-21.75,407.40740740740745,34.208333333333336,444.44444444444446,34C481.48148148148147,33.791666666666664,496.29629629629625,-21.916666666666668,533.3333333333333,-24C570.3703703703703,-26.083333333333332,585.1851851851851,21.291666666666668,622.2222222222222,24C659.2592592592592,26.708333333333332,674.074074074074,-16.416666666666664,711.1111111111111,-11C748.1481481481482,-5.583333333333334,781.4814814814815,37.29166666666667,800,50" transform="matrix(1,0,0,1,0,256)"></path><path d="M10,10C26.435185185185183,12.5,53.93518518518518,27,88.88888888888889,22C123.84259259259258,17,140.74074074074073,-15.25,177.77777777777777,-14C214.8148148148148,-12.75,229.6296296296296,29.875,266.66666666666663,28C303.7037037037037,26.125,318.5185185185185,-24.25,355.55555555555554,-23C392.5925925925926,-21.75,407.40740740740745,34.208333333333336,444.44444444444446,34C481.48148148148147,33.791666666666664,496.29629629629625,-21.916666666666668,533.3333333333333,-24C570.3703703703703,-26.083333333333332,585.1851851851851,21.291666666666668,622.2222222222222,24C659.2592592592592,26.708333333333332,674.074074074074,-16.416666666666664,711.1111111111111,-11C748.1481481481482,-5.583333333333334,781.4814814814815,37.29166666666667,800,50" transform="matrix(1,0,0,1,0,224)"></path><path d="M10,10C26.435185185185183,12.5,53.93518518518518,27,88.88888888888889,22C123.84259259259258,17,140.74074074074073,-15.25,177.77777777777777,-14C214.8148148148148,-12.75,229.6296296296296,29.875,266.66666666666663,28C303.7037037037037,26.125,318.5185185185185,-24.25,355.55555555555554,-23C392.5925925925926,-21.75,407.40740740740745,34.208333333333336,444.44444444444446,34C481.48148148148147,33.791666666666664,496.29629629629625,-21.916666666666668,533.3333333333333,-24C570.3703703703703,-26.083333333333332,585.1851851851851,21.291666666666668,622.2222222222222,24C659.2592592592592,26.708333333333332,674.074074074074,-16.416666666666664,711.1111111111111,-11C748.1481481481482,-5.583333333333334,781.4814814814815,37.29166666666667,800,50" transform="matrix(1,0,0,1,0,192)"></path><path d="M10,10C26.435185185185183,12.5,53.93518518518518,27,88.88888888888889,22C123.84259259259258,17,140.74074074074073,-15.25,177.77777777777777,-14C214.8148148148148,-12.75,229.6296296296296,29.875,266.66666666666663,28C303.7037037037037,26.125,318.5185185185185,-24.25,355.55555555555554,-23C392.5925925925926,-21.75,407.40740740740745,34.208333333333336,444.44444444444446,34C481.48148148148147,33.791666666666664,496.29629629629625,-21.916666666666668,533.3333333333333,-24C570.3703703703703,-26.083333333333332,585.1851851851851,21.291666666666668,622.2222222222222,24C659.2592592592592,26.708333333333332,674.074074074074,-16.416666666666664,711.1111111111111,-11C748.1481481481482,-5.583333333333334,781.4814814814815,37.29166666666667,800,50" transform="matrix(1,0,0,1,0,160)"></path><path d="M10,10C26.435185185185183,12.5,53.93518518518518,27,88.88888888888889,22C123.84259259259258,17,140.74074074074073,-15.25,177.77777777777777,-14C214.8148148148148,-12.75,229.6296296296296,29.875,266.66666666666663,28C303.7037037037037,26.125,318.5185185185185,-24.25,355.55555555555554,-23C392.5925925925926,-21.75,407.40740740740745,34.208333333333336,444.44444444444446,34C481.48148148148147,33.791666666666664,496.29629629629625,-21.916666666666668,533.3333333333333,-24C570.3703703703703,-26.083333333333332,585.1851851851851,21.291666666666668,622.2222222222222,24C659.2592592592592,26.708333333333332,674.074074074074,-16.416666666666664,711.1111111111111,-11C748.1481481481482,-5.583333333333334,781.4814814814815,37.29166666666667,800,50" transform="matrix(1,0,0,1,0,128)"></path><path d="M10,10C26.435185185185183,12.5,53.93518518518518,27,88.88888888888889,22C123.84259259259258,17,140.74074074074073,-15.25,177.77777777777777,-14C214.8148148148148,-12.75,229.6296296296296,29.875,266.66666666666663,28C303.7037037037037,26.125,318.5185185185185,-24.25,355.55555555555554,-23C392.5925925925926,-21.75,407.40740740740745,34.208333333333336,444.44444444444446,34C481.48148148148147,33.791666666666664,496.29629629629625,-21.916666666666668,533.3333333333333,-24C570.3703703703703,-26.083333333333332,585.1851851851851,21.291666666666668,622.2222222222222,24C659.2592592592592,26.708333333333332,674.074074074074,-16.416666666666664,711.1111111111111,-11C748.1481481481482,-5.583333333333334,781.4814814814815,37.29166666666667,800,50" transform="matrix(1,0,0,1,0,96)"></path><path d="M10,10C26.435185185185183,12.5,53.93518518518518,27,88.88888888888889,22C123.84259259259258,17,140.74074074074073,-15.25,177.77777777777777,-14C214.8148148148148,-12.75,229.6296296296296,29.875,266.66666666666663,28C303.7037037037037,26.125,318.5185185185185,-24.25,355.55555555555554,-23C392.5925925925926,-21.75,407.40740740740745,34.208333333333336,444.44444444444446,34C481.48148148148147,33.791666666666664,496.29629629629625,-21.916666666666668,533.3333333333333,-24C570.3703703703703,-26.083333333333332,585.1851851851851,21.291666666666668,622.2222222222222,24C659.2592592592592,26.708333333333332,674.074074074074,-16.416666666666664,711.1111111111111,-11C748.1481481481482,-5.583333333333334,781.4814814814815,37.29166666666667,800,50" transform="matrix(1,0,0,1,0,64)"></path><path d="M10,10C26.435185185185183,12.5,53.93518518518518,27,88.88888888888889,22C123.84259259259258,17,140.74074074074073,-15.25,177.77777777777777,-14C214.8148148148148,-12.75,229.6296296296296,29.875,266.66666666666663,28C303.7037037037037,26.125,318.5185185185185,-24.25,355.55555555555554,-23C392.5925925925926,-21.75,407.40740740740745,34.208333333333336,444.44444444444446,34C481.48148148148147,33.791666666666664,496.29629629629625,-21.916666666666668,533.3333333333333,-24C570.3703703703703,-26.083333333333332,585.1851851851851,21.291666666666668,622.2222222222222,24C659.2592592592592,26.708333333333332,674.074074074074,-16.416666666666664,711.1111111111111,-11C748.1481481481482,-5.583333333333334,781.4814814814815,37.29166666666667,800,50" transform="matrix(1,0,0,1,0,32)"></path></g></svg>