<svg width="33" height="28" viewBox="0 0 33 28" fill="none" xmlns="http://www.w3.org/2000/svg">
<path fill-rule="evenodd" clip-rule="evenodd" d="M0 14C0 13.4697 0.210714 12.961 0.585787 12.586C0.96086 12.211 1.46957 12.0004 2 12.0004H25.172L16.584 3.41791C16.2085 3.04243 15.9975 2.53317 15.9975 2.00217C15.9975 1.47116 16.2085 0.9619 16.584 0.586421C16.9595 0.210942 17.4689 0 18 0C18.5311 0 19.0405 0.210942 19.416 0.586421L31.416 12.5843C31.6023 12.77 31.75 12.9907 31.8508 13.2336C31.9517 13.4765 32.0036 13.737 32.0036 14C32.0036 14.263 31.9517 14.5235 31.8508 14.7664C31.75 15.0093 31.6023 15.23 31.416 15.4157L19.416 27.4136C19.0405 27.7891 18.5311 28 18 28C17.4689 28 16.9595 27.7891 16.584 27.4136C16.2085 27.0381 15.9975 26.5288 15.9975 25.9978C15.9975 25.4668 16.2085 24.9576 16.584 24.5821L25.172 15.9996H2C1.46957 15.9996 0.96086 15.789 0.585787 15.414C0.210714 15.039 0 14.5303 0 14Z" fill="white"/>
</svg>
