<svg width="1440" height="1516" viewBox="0 0 1440 1516" fill="none" xmlns="http://www.w3.org/2000/svg">
<g filter="url(#filter0_d_13_26)">
<rect y="153" width="1440" height="871" fill="url(#paint0_linear_13_26)"/>
</g>
<g filter="url(#filter1_d_13_26)">
<path d="M1313 554C1313 881.505 1047.5 1147 720 1147C392.495 1147 127 881.505 127 554C127 226.495 392.495 -39 720 -39C1047.5 -39 1313 226.495 1313 554ZM323.754 554C323.754 772.841 501.159 950.246 720 950.246C938.841 950.246 1116.25 772.841 1116.25 554C1116.25 335.159 938.841 157.754 720 157.754C501.159 157.754 323.754 335.159 323.754 554Z" fill="url(#paint1_linear_13_26)"/>
</g>
<g filter="url(#filter2_d_13_26)">
<path d="M1452 554C1452 958.272 1124.27 1286 720 1286C315.728 1286 -12 958.272 -12 554C-12 149.728 315.728 -178 720 -178C1124.27 -178 1452 149.728 1452 554ZM163.195 554C163.195 861.515 412.485 1110.81 720 1110.81C1027.51 1110.81 1276.81 861.515 1276.81 554C1276.81 246.485 1027.51 -2.80505 720 -2.80505C412.485 -2.80505 163.195 246.485 163.195 554Z" fill="url(#paint2_linear_13_26)"/>
</g>
<g filter="url(#filter3_d_13_26)">
<path d="M1633 554C1633 1058.24 1224.24 1467 720 1467C215.764 1467 -193 1058.24 -193 554C-193 49.764 215.764 -359 720 -359C1224.24 -359 1633 49.764 1633 554ZM2.43683 554C2.43683 950.299 323.701 1271.56 720 1271.56C1116.3 1271.56 1437.56 950.299 1437.56 554C1437.56 157.701 1116.3 -163.563 720 -163.563C323.701 -163.563 2.43683 157.701 2.43683 554Z" fill="url(#paint3_linear_13_26)"/>
</g>
<defs>
<filter id="filter0_d_13_26" x="-96" y="57" width="1632" height="1063" filterUnits="userSpaceOnUse" color-interpolation-filters="sRGB">
<feFlood flood-opacity="0" result="BackgroundImageFix"/>
<feColorMatrix in="SourceAlpha" type="matrix" values="0 0 0 0 0 0 0 0 0 0 0 0 0 0 0 0 0 0 127 0" result="hardAlpha"/>
<feOffset/>
<feGaussianBlur stdDeviation="48"/>
<feComposite in2="hardAlpha" operator="out"/>
<feColorMatrix type="matrix" values="0 0 0 0 0 0 0 0 0 0 0 0 0 0 0 0 0 0 0.36 0"/>
<feBlend mode="normal" in2="BackgroundImageFix" result="effect1_dropShadow_13_26"/>
<feBlend mode="normal" in="SourceGraphic" in2="effect1_dropShadow_13_26" result="shape"/>
</filter>
<filter id="filter1_d_13_26" x="31" y="-135" width="1378" height="1378" filterUnits="userSpaceOnUse" color-interpolation-filters="sRGB">
<feFlood flood-opacity="0" result="BackgroundImageFix"/>
<feColorMatrix in="SourceAlpha" type="matrix" values="0 0 0 0 0 0 0 0 0 0 0 0 0 0 0 0 0 0 127 0" result="hardAlpha"/>
<feOffset/>
<feGaussianBlur stdDeviation="48"/>
<feComposite in2="hardAlpha" operator="out"/>
<feColorMatrix type="matrix" values="0 0 0 0 0 0 0 0 0 0 0 0 0 0 0 0 0 0 0.36 0"/>
<feBlend mode="normal" in2="BackgroundImageFix" result="effect1_dropShadow_13_26"/>
<feBlend mode="normal" in="SourceGraphic" in2="effect1_dropShadow_13_26" result="shape"/>
</filter>
<filter id="filter2_d_13_26" x="-108" y="-274" width="1656" height="1656" filterUnits="userSpaceOnUse" color-interpolation-filters="sRGB">
<feFlood flood-opacity="0" result="BackgroundImageFix"/>
<feColorMatrix in="SourceAlpha" type="matrix" values="0 0 0 0 0 0 0 0 0 0 0 0 0 0 0 0 0 0 127 0" result="hardAlpha"/>
<feOffset/>
<feGaussianBlur stdDeviation="48"/>
<feComposite in2="hardAlpha" operator="out"/>
<feColorMatrix type="matrix" values="0 0 0 0 0 0 0 0 0 0 0 0 0 0 0 0 0 0 0.36 0"/>
<feBlend mode="normal" in2="BackgroundImageFix" result="effect1_dropShadow_13_26"/>
<feBlend mode="normal" in="SourceGraphic" in2="effect1_dropShadow_13_26" result="shape"/>
</filter>
<filter id="filter3_d_13_26" x="-289" y="-455" width="2018" height="2018" filterUnits="userSpaceOnUse" color-interpolation-filters="sRGB">
<feFlood flood-opacity="0" result="BackgroundImageFix"/>
<feColorMatrix in="SourceAlpha" type="matrix" values="0 0 0 0 0 0 0 0 0 0 0 0 0 0 0 0 0 0 127 0" result="hardAlpha"/>
<feOffset/>
<feGaussianBlur stdDeviation="48"/>
<feComposite in2="hardAlpha" operator="out"/>
<feColorMatrix type="matrix" values="0 0 0 0 0 0 0 0 0 0 0 0 0 0 0 0 0 0 0.36 0"/>
<feBlend mode="normal" in2="BackgroundImageFix" result="effect1_dropShadow_13_26"/>
<feBlend mode="normal" in="SourceGraphic" in2="effect1_dropShadow_13_26" result="shape"/>
</filter>
<linearGradient id="paint0_linear_13_26" x1="758.853" y1="272.34" x2="657.259" y2="1797.21" gradientUnits="userSpaceOnUse">
<stop/>
<stop offset="1" stop-color="#130EFF"/>
</linearGradient>
<linearGradient id="paint1_linear_13_26" x1="334.518" y1="1090.49" x2="108.355" y2="-72.4329" gradientUnits="userSpaceOnUse">
<stop/>
<stop offset="1" stop-color="#130EFF"/>
</linearGradient>
<linearGradient id="paint2_linear_13_26" x1="244.16" y1="1216.25" x2="-35.0159" y2="-219.27" gradientUnits="userSpaceOnUse">
<stop/>
<stop offset="1" stop-color="#130EFF"/>
</linearGradient>
<linearGradient id="paint3_linear_13_26" x1="126.5" y1="1380" x2="-221.707" y2="-410.474" gradientUnits="userSpaceOnUse">
<stop/>
<stop offset="1" stop-color="#130EFF"/>
</linearGradient>
</defs>
</svg>
