<svg width="1440" height="1516" viewBox="0 0 1440 1516" fill="none" xmlns="http://www.w3.org/2000/svg">
<g filter="url(#filter0_d_17_3)">
<rect y="153" width="1440" height="871" fill="url(#paint0_linear_17_3)"/>
</g>
<g filter="url(#filter1_d_17_3)">
<circle cx="720" cy="554" r="593" fill="url(#paint1_linear_17_3)"/>
</g>
<g filter="url(#filter2_d_17_3)">
<path d="M1453 554C1453 958.272 1125.27 1286 721 1286C316.728 1286 -11 958.272 -11 554C-11 149.728 316.728 -178 721 -178C1125.27 -178 1453 149.728 1453 554ZM164.195 554C164.195 861.515 413.485 1110.81 721 1110.81C1028.51 1110.81 1277.81 861.515 1277.81 554C1277.81 246.485 1028.51 -2.80505 721 -2.80505C413.485 -2.80505 164.195 246.485 164.195 554Z" fill="url(#paint2_linear_17_3)"/>
</g>
<g filter="url(#filter3_d_17_3)">
<path d="M1633 554C1633 1058.24 1224.24 1467 720 1467C215.764 1467 -193 1058.24 -193 554C-193 49.764 215.764 -359 720 -359C1224.24 -359 1633 49.764 1633 554ZM2.43683 554C2.43683 950.299 323.701 1271.56 720 1271.56C1116.3 1271.56 1437.56 950.299 1437.56 554C1437.56 157.701 1116.3 -163.563 720 -163.563C323.701 -163.563 2.43683 157.701 2.43683 554Z" fill="url(#paint3_linear_17_3)"/>
</g>
<defs>
<filter id="filter0_d_17_3" x="-96" y="57" width="1632" height="1063" filterUnits="userSpaceOnUse" color-interpolation-filters="sRGB">
<feFlood flood-opacity="0" result="BackgroundImageFix"/>
<feColorMatrix in="SourceAlpha" type="matrix" values="0 0 0 0 0 0 0 0 0 0 0 0 0 0 0 0 0 0 127 0" result="hardAlpha"/>
<feOffset/>
<feGaussianBlur stdDeviation="48"/>
<feComposite in2="hardAlpha" operator="out"/>
<feColorMatrix type="matrix" values="0 0 0 0 0 0 0 0 0 0 0 0 0 0 0 0 0 0 0.36 0"/>
<feBlend mode="normal" in2="BackgroundImageFix" result="effect1_dropShadow_17_3"/>
<feBlend mode="normal" in="SourceGraphic" in2="effect1_dropShadow_17_3" result="shape"/>
</filter>
<filter id="filter1_d_17_3" x="31" y="-135" width="1378" height="1378" filterUnits="userSpaceOnUse" color-interpolation-filters="sRGB">
<feFlood flood-opacity="0" result="BackgroundImageFix"/>
<feColorMatrix in="SourceAlpha" type="matrix" values="0 0 0 0 0 0 0 0 0 0 0 0 0 0 0 0 0 0 127 0" result="hardAlpha"/>
<feOffset/>
<feGaussianBlur stdDeviation="48"/>
<feComposite in2="hardAlpha" operator="out"/>
<feColorMatrix type="matrix" values="0 0 0 0 0 0 0 0 0 0 0 0 0 0 0 0 0 0 0.36 0"/>
<feBlend mode="normal" in2="BackgroundImageFix" result="effect1_dropShadow_17_3"/>
<feBlend mode="normal" in="SourceGraphic" in2="effect1_dropShadow_17_3" result="shape"/>
</filter>
<filter id="filter2_d_17_3" x="-107" y="-274" width="1656" height="1656" filterUnits="userSpaceOnUse" color-interpolation-filters="sRGB">
<feFlood flood-opacity="0" result="BackgroundImageFix"/>
<feColorMatrix in="SourceAlpha" type="matrix" values="0 0 0 0 0 0 0 0 0 0 0 0 0 0 0 0 0 0 127 0" result="hardAlpha"/>
<feOffset/>
<feGaussianBlur stdDeviation="48"/>
<feComposite in2="hardAlpha" operator="out"/>
<feColorMatrix type="matrix" values="0 0 0 0 0 0 0 0 0 0 0 0 0 0 0 0 0 0 0.36 0"/>
<feBlend mode="normal" in2="BackgroundImageFix" result="effect1_dropShadow_17_3"/>
<feBlend mode="normal" in="SourceGraphic" in2="effect1_dropShadow_17_3" result="shape"/>
</filter>
<filter id="filter3_d_17_3" x="-289" y="-455" width="2018" height="2018" filterUnits="userSpaceOnUse" color-interpolation-filters="sRGB">
<feFlood flood-opacity="0" result="BackgroundImageFix"/>
<feColorMatrix in="SourceAlpha" type="matrix" values="0 0 0 0 0 0 0 0 0 0 0 0 0 0 0 0 0 0 127 0" result="hardAlpha"/>
<feOffset/>
<feGaussianBlur stdDeviation="48"/>
<feComposite in2="hardAlpha" operator="out"/>
<feColorMatrix type="matrix" values="0 0 0 0 0 0 0 0 0 0 0 0 0 0 0 0 0 0 0.36 0"/>
<feBlend mode="normal" in2="BackgroundImageFix" result="effect1_dropShadow_17_3"/>
<feBlend mode="normal" in="SourceGraphic" in2="effect1_dropShadow_17_3" result="shape"/>
</filter>
<linearGradient id="paint0_linear_17_3" x1="758.853" y1="272.34" x2="657.259" y2="1797.21" gradientUnits="userSpaceOnUse">
<stop/>
<stop offset="1" stop-color="#130EFF"/>
</linearGradient>
<linearGradient id="paint1_linear_17_3" x1="268.917" y1="1033.34" x2="368.941" y2="-123.111" gradientUnits="userSpaceOnUse">
<stop/>
<stop offset="1" stop-color="#130EFF"/>
</linearGradient>
<linearGradient id="paint2_linear_17_3" x1="164.183" y1="1145.69" x2="287.653" y2="-281.827" gradientUnits="userSpaceOnUse">
<stop/>
<stop offset="1" stop-color="#130EFF"/>
</linearGradient>
<linearGradient id="paint3_linear_17_3" x1="25.5" y1="1292" x2="179.5" y2="-488.5" gradientUnits="userSpaceOnUse">
<stop/>
<stop offset="1" stop-color="#130EFF"/>
</linearGradient>
</defs>
</svg>
