<svg width="1440" height="1024" viewBox="0 0 1440 1024" fill="none" xmlns="http://www.w3.org/2000/svg">
<path d="M522 0L662 12.5L-73.5 1062L-93 739.5L522 0Z" fill="url(#paint0_linear_7_27)"/>
<path d="M522 175L672.5 181.5L-73.5 1237L-93 914.5L522 175Z" fill="url(#paint1_linear_7_27)"/>
<path d="M522 350L665 380.5L-73.5 1412L-93 1089.5L522 350Z" fill="url(#paint2_linear_7_27)"/>
<path d="M522 525L650 536.5L-73.5 1587L-93 1264.5L522 525Z" fill="url(#paint3_linear_7_27)"/>
<path d="M522 700H614.5L-73.5 1762L-93 1439.5L522 700Z" fill="url(#paint4_linear_7_27)"/>
<path d="M721.5 0H514L1518 1263V921L721.5 0Z" fill="url(#paint5_linear_7_27)"/>
<path d="M721.5 175L510.5 197.5L1469.5 1389.5L1489 1067L721.5 175Z" fill="url(#paint6_linear_7_27)"/>
<path d="M721.5 350L542 350L1561 1656L1580.5 1333.5L721.5 350Z" fill="url(#paint7_linear_7_27)"/>
<path d="M721.5 497L487 497L1549.5 1791.5L1569 1469L721.5 497Z" fill="url(#paint8_linear_7_27)"/>
<path d="M719 630L676.5 719.5L1582.27 2005L1551.5 1677.5L719 630Z" fill="url(#paint9_linear_7_27)"/>
<defs>
<linearGradient id="paint0_linear_7_27" x1="522" y1="46.4999" x2="-300.5" y2="1110" gradientUnits="userSpaceOnUse">
<stop/>
<stop offset="1" stop-color="#130EFF"/>
</linearGradient>
<linearGradient id="paint1_linear_7_27" x1="522" y1="221.5" x2="-300.5" y2="1285" gradientUnits="userSpaceOnUse">
<stop/>
<stop offset="1" stop-color="#130EFF"/>
</linearGradient>
<linearGradient id="paint2_linear_7_27" x1="522" y1="396.5" x2="-300.5" y2="1460" gradientUnits="userSpaceOnUse">
<stop/>
<stop offset="1" stop-color="#130EFF"/>
</linearGradient>
<linearGradient id="paint3_linear_7_27" x1="522" y1="571.5" x2="-300.5" y2="1635" gradientUnits="userSpaceOnUse">
<stop/>
<stop offset="1" stop-color="#130EFF"/>
</linearGradient>
<linearGradient id="paint4_linear_7_27" x1="522" y1="746.5" x2="-300.5" y2="1810" gradientUnits="userSpaceOnUse">
<stop/>
<stop offset="1" stop-color="#130EFF"/>
</linearGradient>
<linearGradient id="paint5_linear_7_27" x1="721.5" y1="46.5" x2="1544" y2="1110" gradientUnits="userSpaceOnUse">
<stop/>
<stop offset="1" stop-color="#130EFF"/>
</linearGradient>
<linearGradient id="paint6_linear_7_27" x1="721.5" y1="221.5" x2="1544" y2="1285" gradientUnits="userSpaceOnUse">
<stop/>
<stop offset="1" stop-color="#130EFF"/>
</linearGradient>
<linearGradient id="paint7_linear_7_27" x1="721.5" y1="396.5" x2="1544" y2="1460" gradientUnits="userSpaceOnUse">
<stop/>
<stop offset="1" stop-color="#130EFF"/>
</linearGradient>
<linearGradient id="paint8_linear_7_27" x1="721.5" y1="543.5" x2="1544" y2="1607" gradientUnits="userSpaceOnUse">
<stop/>
<stop offset="1" stop-color="#130EFF"/>
</linearGradient>
<linearGradient id="paint9_linear_7_27" x1="721.5" y1="746.5" x2="1544" y2="1810" gradientUnits="userSpaceOnUse">
<stop/>
<stop offset="1" stop-color="#130EFF"/>
</linearGradient>
</defs>
</svg>
