<svg width="158" height="42" viewBox="0 0 158 42" fill="none" xmlns="http://www.w3.org/2000/svg">
<path d="M1 8.58879C1 8.58879 5.11698 1 15.7989 1C26.4807 1 27.1484 15 38.1641 15C49.1797 15 49.6248 1 62.087 1C74.5492 1 73.9929 15 87.679 15C101.365 15 102.255 1 115.051 1C127.847 1 128.07 15 139.976 15C151.882 15 157 5.71028 157 5.71028" stroke="white"/>
<path d="M1 21.5888C1 21.5888 5.11698 14 15.7989 14C26.4807 14 27.1484 28 38.1641 28C49.1797 28 49.6248 14 62.087 14C74.5492 14 73.9929 28 87.679 28C101.365 28 102.255 14 115.051 14C127.847 14 128.07 28 139.976 28C151.882 28 157 18.7103 157 18.7103" stroke="white"/>
<path d="M1 34.5888C1 34.5888 5.11698 27 15.7989 27C26.4807 27 27.1484 41 38.1641 41C49.1797 41 49.6248 27 62.087 27C74.5492 27 73.9929 41 87.679 41C101.365 41 102.255 27 115.051 27C127.847 27 128.07 41 139.976 41C151.882 41 157 31.7103 157 31.7103" stroke="white"/>
</svg>
