<svg width="702" height="707" viewBox="0 0 702 707" fill="none" xmlns="http://www.w3.org/2000/svg">
<g opacity="0.8">
<path opacity="0.8" d="M435.25 440.25C582.02 293.48 582.02 55.5197 435.25 -91.25C288.48 -238.02 50.5196 -238.02 -96.25 -91.25C-243.02 55.5197 -243.02 293.48 -96.25 440.25C50.5197 587.02 288.48 587.02 435.25 440.25Z" stroke="white" stroke-width="0.5" stroke-miterlimit="10"/>
<path opacity="0.8" d="M421.865 426.864C561.242 287.487 561.242 61.5126 421.865 -77.8644C282.488 -217.241 56.5129 -217.241 -82.8641 -77.8644C-222.241 61.5126 -222.241 287.487 -82.8641 426.864C56.5129 566.241 282.488 566.242 421.865 426.864Z" stroke="white" stroke-width="0.6562" stroke-miterlimit="10"/>
<path opacity="0.8" d="M169.503 512.438C356.145 512.438 507.447 361.136 507.447 174.495C507.447 -12.1465 356.145 -163.449 169.503 -163.449C-17.1378 -163.449 -168.44 -12.1465 -168.44 174.495C-168.44 361.136 -17.1378 512.438 169.503 512.438Z" stroke="white" stroke-width="0.8125" stroke-miterlimit="10"/>
<path opacity="0.8" d="M169.504 493.509C345.69 493.509 488.518 350.681 488.518 174.495C488.518 -1.69128 345.69 -144.519 169.504 -144.519C-6.68253 -144.519 -149.51 -1.69128 -149.51 174.495C-149.51 350.681 -6.68253 493.509 169.504 493.509Z" stroke="white" stroke-width="0.9688" stroke-miterlimit="10"/>
<path opacity="0.8" d="M381.69 386.689C498.879 269.5 498.879 79.4998 381.69 -37.689C264.501 -154.878 74.5008 -154.878 -42.688 -37.689C-159.877 79.4998 -159.877 269.5 -42.688 386.689C74.5008 503.878 264.501 503.878 381.69 386.689Z" stroke="white" stroke-width="1.125" stroke-miterlimit="10"/>
<path opacity="0.8" d="M368.305 373.304C478.101 263.507 478.101 85.4927 368.305 -24.3034C258.509 -134.1 80.4941 -134.1 -29.302 -24.3034C-139.098 85.4927 -139.098 263.507 -29.302 373.303C80.4941 483.1 258.509 483.1 368.305 373.304Z" stroke="white" stroke-width="1.2812" stroke-miterlimit="10"/>
<path opacity="0.8" d="M354.917 359.918C457.32 257.514 457.32 91.4855 354.917 -10.9179C252.513 -113.321 86.4845 -113.321 -15.919 -10.9179C-118.323 91.4856 -118.322 257.514 -15.919 359.918C86.4845 462.321 252.513 462.321 354.917 359.918Z" stroke="white" stroke-width="1.4375" stroke-miterlimit="10"/>
<path opacity="0.8" d="M341.531 346.532C436.542 251.522 436.542 97.4785 341.531 2.46762C246.52 -92.5432 92.4768 -92.5432 -2.53402 2.46761C-97.5449 97.4785 -97.5449 251.522 -2.53401 346.532C92.4769 441.543 246.52 441.543 341.531 346.532Z" stroke="white" stroke-width="1.5938" stroke-miterlimit="10"/>
<path opacity="0.8" d="M391.045 210.293C410.784 87.9666 327.621 -27.2001 205.295 -46.9393C82.9691 -66.6785 -32.1976 16.4846 -51.9368 138.811C-71.676 261.137 11.4871 376.303 133.813 396.042C256.139 415.782 371.306 332.619 391.045 210.293Z" stroke="white" stroke-width="1.75" stroke-miterlimit="10"/>
<path opacity="0.8" d="M169.503 379.927C282.96 379.927 374.935 287.952 374.935 174.495C374.935 61.0378 282.96 -30.9375 169.503 -30.9375C56.0455 -30.9375 -35.9297 61.0378 -35.9297 174.495C-35.9297 287.952 56.0455 379.927 169.503 379.927Z" stroke="white" stroke-width="1.9062" stroke-miterlimit="10"/>
<path opacity="0.8" d="M301.374 306.376C374.207 233.543 374.207 115.457 301.374 42.6242C228.541 -30.2087 110.456 -30.2087 37.6228 42.6242C-35.2102 115.457 -35.2101 233.543 37.6229 306.376C110.456 379.209 228.541 379.209 301.374 306.376Z" stroke="white" stroke-width="2.0625" stroke-miterlimit="10"/>
<path opacity="0.8" d="M287.972 292.971C353.402 227.541 353.402 121.459 287.972 56.0286C222.542 -9.40138 116.459 -9.40134 51.029 56.0286C-14.4009 121.459 -14.4009 227.541 51.029 292.971C116.459 358.401 222.542 358.401 287.972 292.971Z" stroke="white" stroke-width="2.2188" stroke-miterlimit="10"/>
<path opacity="0.8" d="M274.587 279.586C332.624 221.549 332.624 127.451 274.587 69.4142C216.549 11.3769 122.452 11.3768 64.415 69.4142C6.37763 127.451 6.37766 221.549 64.415 279.586C122.452 337.623 216.549 337.623 274.587 279.586Z" stroke="white" stroke-width="2.375" stroke-miterlimit="10"/>
<path opacity="0.8" d="M261.201 266.2C311.845 215.556 311.845 133.444 261.201 82.7997C210.556 32.155 128.445 32.155 77.7999 82.7997C27.1552 133.444 27.1553 215.556 77.8 266.2C128.445 316.845 210.556 316.845 261.201 266.2Z" stroke="white" stroke-width="2.5312" stroke-miterlimit="10"/>
<path opacity="0.8" d="M279.458 187.462C286.627 126.716 243.194 71.6595 182.448 64.4906C121.702 57.3217 66.6455 100.755 59.4766 161.501C52.3076 222.247 95.7406 277.303 156.487 284.472C217.233 291.641 272.289 248.208 279.458 187.462Z" stroke="white" stroke-width="2.6875" stroke-miterlimit="10"/>
<path opacity="0.8" d="M169.504 266.32C220.218 266.32 261.329 225.208 261.329 174.495C261.329 123.782 220.218 82.6703 169.504 82.6703C118.791 82.6703 77.6797 123.782 77.6797 174.495C77.6797 225.208 118.791 266.32 169.504 266.32Z" stroke="white" stroke-width="2.8438" stroke-miterlimit="10"/>
<path opacity="0.8" d="M242.223 180.356C245.419 140.226 215.479 105.103 175.349 101.907C135.22 98.7102 100.097 128.651 96.9001 168.78C93.7036 208.91 123.644 244.033 163.774 247.229C203.903 250.426 239.026 220.486 242.223 180.356Z" stroke="white" stroke-width="3" stroke-miterlimit="10"/>
<path opacity="0.8" d="M222.797 178.809C225.139 149.407 203.203 123.674 173.802 121.332C144.4 118.99 118.667 140.926 116.325 170.328C113.983 199.729 135.919 225.462 165.321 227.804C194.722 230.146 220.455 208.21 222.797 178.809Z" stroke="white" stroke-width="3" stroke-miterlimit="10"/>
<path opacity="0.8" d="M204.427 177.345C205.96 158.09 191.594 141.236 172.338 139.702C153.082 138.169 136.229 152.535 134.695 171.791C133.161 191.047 147.528 207.9 166.784 209.434C186.039 210.968 202.893 196.601 204.427 177.345Z" stroke="white" stroke-width="3" stroke-miterlimit="10"/>
<path opacity="0.8" d="M187.965 176.034C187.155 186.198 178.259 193.782 168.095 192.972C157.931 192.162 150.347 183.266 151.157 173.102C151.967 162.938 160.863 155.354 171.027 156.164C181.191 156.974 188.775 165.87 187.965 176.034Z" stroke="white" stroke-width="3" stroke-miterlimit="10"/>
</g>
</svg>
