<svg width="160" height="44" viewBox="0 0 160 44" fill="none" xmlns="http://www.w3.org/2000/svg">
<path d="M1 7.5C1 7.5 11.5 15 16 15C29 15 34 1 42 1C50 1 60.5 15 69.5 15C78.5 15 84 1 93 1C102 1 108 15 116.5 15C125 15 128.5 1 141 1C144.5 1 159 7.5 159 7.5" stroke="white"/>
<path d="M1 21.5C1 21.5 11.5 29 16 29C29 29 34 15 42 15C50 15 60.5 29 69.5 29C78.5 29 84 15 93 15C102 15 108 29 116.5 29C125 29 128.5 15 141 15C144.5 15 159 21.5 159 21.5" stroke="white"/>
<path d="M1 35.5C1 35.5 11.5 43 16 43C29 43 34 29 42 29C50 29 60.5 43 69.5 43C78.5 43 84 29 93 29C102 29 108 43 116.5 43C125 43 128.5 29 141 29C144.5 29 159 35.5 159 35.5" stroke="white"/>
</svg>
