<svg width="1225" height="890" viewBox="0 0 1225 890" fill="none" xmlns="http://www.w3.org/2000/svg">
<path d="M-5 66.0001C73.5 32 272.9 -48.6195 542.5 43.7805C879.5 159.281 658 551.28 1046.5 324.28C1357.3 142.68 1190.33 654.947 1068 933.78" stroke="url(#paint0_linear)" stroke-linecap="round"/>
<path d="M-5 119C72.5 64 272.9 -28.6194 542.5 63.7806C879.5 179.281 658 571.281 1046.5 344.281C1357.3 162.681 1190.33 674.947 1068 953.781" stroke="url(#paint1_linear)" stroke-linecap="round"/>
<path d="M-5 174C63 120 272.9 -8.61947 542.5 83.7805C879.5 199.281 658 591.281 1046.5 364.281C1357.3 182.681 1190.33 694.947 1068 973.78" stroke="url(#paint2_linear)" stroke-linecap="round"/>
<path d="M-5 234.5C65.1667 157.5 272.9 11.3805 542.5 103.781C879.5 219.281 658 611.281 1046.5 384.281C1357.3 202.681 1190.33 714.947 1068 993.78" stroke="url(#paint3_linear)" stroke-linecap="round"/>
<path d="M-8 316.5C80 197.5 272.9 31.3805 542.5 123.781C879.5 239.281 658 631.281 1046.5 404.281C1357.3 222.681 1190.33 734.947 1068 1013.78" stroke="url(#paint4_linear)" stroke-linecap="round"/>
<path d="M-16 433C98.5 255 272.9 51.3805 542.5 143.781C879.5 259.281 658 651.281 1046.5 424.281C1357.3 242.681 1190.33 754.947 1068 1033.78" stroke="url(#paint5_linear)" stroke-linecap="round"/>
<defs>
<linearGradient id="paint0_linear" x1="438.5" y1="-159.5" x2="768.5" y2="888" gradientUnits="userSpaceOnUse">
<stop stop-color="white"/>
<stop offset="1" stop-color="white" stop-opacity="0"/>
</linearGradient>
<linearGradient id="paint1_linear" x1="438.5" y1="-139.5" x2="768.5" y2="908" gradientUnits="userSpaceOnUse">
<stop stop-color="white"/>
<stop offset="1" stop-color="white" stop-opacity="0"/>
</linearGradient>
<linearGradient id="paint2_linear" x1="438.5" y1="-119.5" x2="768.5" y2="928" gradientUnits="userSpaceOnUse">
<stop stop-color="white"/>
<stop offset="1" stop-color="white" stop-opacity="0"/>
</linearGradient>
<linearGradient id="paint3_linear" x1="438.5" y1="-99.5" x2="768.5" y2="948" gradientUnits="userSpaceOnUse">
<stop stop-color="white"/>
<stop offset="1" stop-color="white" stop-opacity="0"/>
</linearGradient>
<linearGradient id="paint4_linear" x1="438.5" y1="-79.5001" x2="768.5" y2="968" gradientUnits="userSpaceOnUse">
<stop stop-color="white"/>
<stop offset="1" stop-color="white" stop-opacity="0"/>
</linearGradient>
<linearGradient id="paint5_linear" x1="796" y1="212" x2="768.5" y2="988" gradientUnits="userSpaceOnUse">
<stop stop-color="white"/>
<stop offset="1" stop-color="white" stop-opacity="0"/>
</linearGradient>
</defs>
</svg>
